<svg width="16" height="16" viewBox="0 0 16 16" fill="none" xmlns="http://www.w3.org/2000/svg">
<path fill-rule="evenodd" clip-rule="evenodd" d="M7.07918 1.91459C7.20622 1.6605 7.46592 1.5 7.75 1.5C8.47935 1.5 9.17882 1.78973 9.69454 2.30546C10.2103 2.82118 10.5 3.52065 10.5 4.25V5H13.6179C13.8664 4.99953 14.1121 5.05216 14.3385 5.15438C14.5653 5.25673 14.7676 5.40643 14.9317 5.59342C15.0958 5.78041 15.2181 6.00036 15.2902 6.23849C15.3619 6.47556 15.3824 6.72518 15.3501 6.97074L14.6004 12.9687C14.5473 13.3903 14.3426 13.7781 14.0247 14.0598C13.7067 14.3416 13.2971 14.498 12.8722 14.5L12.8687 14.5H2.25C1.91848 14.5 1.60054 14.3683 1.36612 14.1339C1.1317 13.8995 1 13.5815 1 13.25V7.75C1 7.41848 1.1317 7.10054 1.36612 6.86612C1.60054 6.6317 1.91848 6.5 2.25 6.5H4.78647L7.07918 1.91459ZM4.5 8H2.5V13H4.5V8ZM6 13H12.8664C12.9267 12.9995 12.9847 12.9771 13.0299 12.9371C13.0753 12.8969 13.1045 12.8415 13.1121 12.7813L13.862 6.78197L13.8628 6.77594C13.8674 6.74147 13.8646 6.70641 13.8545 6.67312C13.8444 6.63983 13.8273 6.60909 13.8044 6.58295C13.7815 6.55681 13.7532 6.53589 13.7215 6.52158C13.6898 6.50727 13.6554 6.49991 13.6206 6.5L13.6187 6.5H9.75C9.33579 6.5 9 6.16421 9 5.75V4.25C9 3.91848 8.8683 3.60054 8.63388 3.36612C8.5032 3.23544 8.34657 3.13668 8.17609 3.07486L6 7.42705V13Z" fill="white"/>
</svg>
