<svg width="16" height="16" viewBox="0 0 16 16" fill="none" xmlns="http://www.w3.org/2000/svg">
<path fill-rule="evenodd" clip-rule="evenodd" d="M2.5 3V8H4.5V3H2.5ZM6 3V8.57295L8.17609 12.9251C8.34657 12.8633 8.5032 12.7646 8.63388 12.6339C8.8683 12.3995 9 12.0815 9 11.75V10.25C9 9.83579 9.33579 9.5 9.75 9.5H13.6187L13.6206 9.5C13.6554 9.50009 13.6898 9.49273 13.7215 9.47842C13.7532 9.46412 13.7815 9.44319 13.8044 9.41705C13.8273 9.39091 13.8444 9.36017 13.8545 9.32688C13.8646 9.29359 13.8674 9.25853 13.8628 9.22406L13.862 9.21803L13.1121 3.21874C13.1045 3.15852 13.0753 3.10313 13.0299 3.06288C12.9848 3.02288 12.9267 3.00056 12.8664 3H6ZM4.78647 9.5H2.25C1.91848 9.5 1.60054 9.36831 1.36612 9.13388C1.1317 8.89946 1 8.58152 1 8.25V2.75C1 2.41848 1.1317 2.10054 1.36612 1.86612C1.60054 1.6317 1.91848 1.5 2.25 1.5H12.8687L12.8722 1.50001C13.2971 1.50199 13.7067 1.65844 14.0247 1.9402C14.3426 2.22195 14.5473 2.60975 14.6004 3.03126L14.6005 3.03197L15.3501 9.02925C15.3824 9.27481 15.3619 9.52444 15.2902 9.76151C15.2181 9.99964 15.0958 10.2196 14.9317 10.4066C14.7676 10.5936 14.5653 10.7433 14.3385 10.8456C14.1121 10.9478 13.8665 11.0004 13.6181 11H10.5V11.75C10.5 12.4793 10.2103 13.1788 9.69454 13.6945C9.17882 14.2103 8.47935 14.5 7.75 14.5C7.46592 14.5 7.20622 14.3395 7.07918 14.0854L4.78647 9.5Z" fill="white"/>
</svg>
